<svg
 xmlns="http://www.w3.org/2000/svg"
 xmlns:xlink="http://www.w3.org/1999/xlink"
 width="14px" height="14px">
<path fill-rule="evenodd"  fill="rgb(51, 51, 51)"
 d="M13.688,13.688 C13.270,14.107 12.590,14.107 12.172,13.688 L8.555,10.071 C7.681,10.657 6.631,11.000 5.500,11.000 C2.462,11.000 0.000,8.537 0.000,5.500 C0.000,2.462 2.462,-0.000 5.500,-0.000 C8.538,-0.000 11.000,2.462 11.000,5.500 C11.000,6.631 10.657,7.681 10.072,8.555 L13.688,12.171 C14.107,12.590 14.107,13.270 13.688,13.688 ZM5.500,2.012 C3.574,2.012 2.012,3.573 2.012,5.500 C2.012,7.426 3.574,8.988 5.500,8.988 C7.426,8.988 8.988,7.426 8.988,5.500 C8.988,3.573 7.426,2.012 5.500,2.012 Z"/>
</svg>
